<?xml version="1.0" standalone="no"?>
<!DOCTYPE svg PUBLIC "-//W3C//DTD SVG 20010904//EN"
 "http://www.w3.org/TR/2001/REC-SVG-20010904/DTD/svg10.dtd">
<svg version="1.0" xmlns="http://www.w3.org/2000/svg"
 width="512.000000pt" height="512.000000pt" viewBox="0 0 512.000000 512.000000"
 preserveAspectRatio="xMidYMid meet">

<g transform="translate(0.000000,512.000000) scale(0.100000,-0.100000)"
fill="#000000" stroke="none">
<path d="M2394 5110 c-364 -39 -708 -203 -969 -465 -312 -311 -476 -710 -476
-1154 0 -397 125 -794 390 -1240 39 -66 168 -260 187 -282 8 -8 14 -18 14 -22
0 -3 -171 -8 -380 -9 -330 -3 -381 -5 -395 -19 -24 -24 -525 -1243 -525 -1278
0 -54 60 -88 109 -61 10 5 38 55 61 110 l42 100 254 0 253 0 -75 -183 c-42
-100 -101 -244 -132 -319 l-56 -138 -254 0 c-199 0 -253 3 -249 13 2 6 22 54
43 105 31 75 36 98 28 119 -13 38 -55 60 -91 48 -32 -11 -53 -49 -128 -236
-54 -131 -54 -161 -5 -186 20 -10 532 -12 2533 -10 l2509 2 19 24 c10 13 19
32 19 42 0 28 -745 1829 -765 1848 -14 14 -63 16 -395 19 -209 1 -380 6 -380
9 0 4 6 14 14 22 19 22 148 216 187 282 265 446 390 843 390 1240 0 444 -164
843 -476 1154 -344 344 -823 515 -1301 465z m327 -1101 c37 -10 94 -37 127
-59 295 -197 336 -594 86 -843 -209 -209 -539 -209 -748 0 -160 160 -203 365
-125 589 l33 93 -22 30 -22 30 51 56 c47 51 53 54 69 40 25 -22 57 -19 114 13
143 80 281 97 437 51z m-956 -2346 c209 -246 675 -699 762 -741 47 -22 69 -9
234 138 l144 129 438 1 c423 0 438 1 457 20 30 30 30 73 -1 105 -19 19 -36 20
-376 25 l-357 5 102 108 c56 59 143 157 193 218 l92 109 402 0 402 0 90 -217
90 -218 -206 -5 c-113 -3 -213 -9 -222 -13 -23 -11 -41 -55 -33 -81 15 -50 30
-56 143 -56 58 0 170 -3 247 -7 l141 -6 47 -111 c25 -62 46 -115 46 -119 0 -4
-351 -7 -780 -7 l-781 0 -24 -25 c-25 -24 -31 -49 -19 -79 3 -8 176 -164 385
-347 208 -182 379 -333 379 -335 0 -2 -97 -4 -215 -4 l-214 0 -743 632 c-409
347 -761 647 -782 665 -44 37 -83 42 -115 16 -12 -11 -125 -272 -287 -666
l-267 -647 -139 0 c-108 0 -139 3 -135 13 3 6 66 159 141 339 158 381 161 395
106 423 -24 12 -78 15 -310 15 -218 0 -280 3 -279 13 0 6 22 62 48 122 l47
110 325 3 c323 2 326 2 346 25 12 12 62 122 112 244 50 122 102 247 115 277
l25 56 59 0 59 0 108 -127z m-489 -103 l-90 -220 -253 0 -253 0 15 38 c9 20
50 119 92 220 l75 182 253 0 252 0 -91 -220z m1162 -850 l652 -555 -451 -3
c-248 -1 -650 -1 -893 0 l-442 3 230 558 c127 307 235 556 241 555 6 -2 304
-253 663 -558z m2235 68 c3 -7 60 -146 127 -308 67 -162 125 -301 127 -308 4
-9 -92 -12 -462 -12 l-467 0 -356 311 c-197 172 -361 316 -366 320 -6 5 305 9
691 9 551 0 702 -3 706 -12z"/>
</g>
</svg>
